# xmcd
#
# Track frame offsets:
#	150
#	9838
#	21310
#	32197
#	45143
#	55217
#	68995
#	80227
#	97555
#	110360
#	122064
#	131452
#	143924
#	155444
#	175108
#	188530
#	199105
#	215262
#	229287
#	245324
#	265544
#	287222
#	306751
#	319473
#	334545
#
# Disc length: 4636 seconds
#
# Revision: 0
# Processed by: cddbd v1.5.2PL0 Copyright (c) Steve Scherf et al.
# Submitted via: EasyCDDAExtractor 12.0.4.1
#
DISCID=52121a19
DTITLE=Willie Nelson - Legendary Country Singers
DYEAR=1979
DGENRE=Country
TTITLE0=Man with the Blues
TTITLE1=Nite Life
TTITLE2=Hello Walls
TTITLE3=Crazy
TTITLE4=Touch Me
TTITLE5=Funny How Time Slips Away
TTITLE6=The Party's Over
TTITLE7=Me and Paul
TTITLE8=Bloody Mary Morning
TTITLE9=Stay All Night (Stay a Little Longer)
TTITLE10=If You've Got the Money, I've Got the Time
TTITLE11=Whiskey River
TTITLE12=On the Road Again
TTITLE13=Georgia on My Mind
TTITLE14=Good Hearted Woman
TTITLE15=Blue Eyes Crying in the Rain
TTITLE16=Blue Skies
TTITLE17=My Heroes Have Always Been Cowboys
TTITLE18=Always on My Mind
TTITLE19=Angel Flying Too Close to the Ground
TTITLE20=Pancho and Lefty
TTITLE21=Last Thing I Needed First Thing This Morning
TTITLE22=Forgiving You Was Easy
TTITLE23=Nothing I Can Do About It Now
TTITLE24=Family Bible
EXTD=
EXTT0=
EXTT1=
EXTT2=
EXTT3=
EXTT4=
EXTT5=
EXTT6=
EXTT7=
EXTT8=
EXTT9=
EXTT10=
EXTT11=
EXTT12=
EXTT13=
EXTT14=
EXTT15=
EXTT16=
EXTT17=
EXTT18=
EXTT19=
EXTT20=
EXTT21=
EXTT22=
EXTT23=
EXTT24=
PLAYORDER=
